HIERARCHY
ROOT Hips
{
    OFFSET 0.000000 0.000000 0.000000
    CHANNELS 6 Xposition Yposition Zposition Zrotation Xrotation Yrotation
    JOINT Spine
    {
        OFFSET -0.000000 14.517291 0.000000
        CHANNELS 3 Zrotation Xrotation Yrotation
        JOINT Spine1
        {
            OFFSET -0.000000 37.558300 0.000000
            CHANNELS 3 Zrotation Xrotation Yrotation
            JOINT Neck
            {
                OFFSET -0.000000 37.404057 3.400369
                CHANNELS 3 Zrotation Xrotation Yrotation
                JOINT Head
                {
                    OFFSET -0.000000 24.785618 -3.540803
                    CHANNELS 3 Zrotation Xrotation Yrotation
                    End Site
                    {
                        OFFSET -0.000000 35.408028 0.000000
                    }
                }
            }
            JOINT LeftShoulder
            {
                OFFSET 6.992933 33.973492 -0.192664
                CHANNELS 3 Zrotation Xrotation Yrotation
                JOINT LeftArm
                {
                    OFFSET 21.527611 0.000000 0.000000
                    CHANNELS 3 Zrotation Xrotation Yrotation
                    JOINT LeftForeArm
                    {
                        OFFSET 56.353916 0.000000 0.000000
                        CHANNELS 3 Zrotation Xrotation Yrotation
                        JOINT LeftHand
                        {
                            OFFSET 47.774071 0.000000 0.000000
                            CHANNELS 3 Zrotation Xrotation Yrotation
                            End Site
                            {
                                OFFSET 26.556021 0.000000 0.000000
                            }
                        }
                    }
                }
            }
            JOINT RightShoulder
            {
                OFFSET -7.065357 33.973492 -0.192664
                CHANNELS 3 Zrotation Xrotation Yrotation
                JOINT RightArm
                {
                    OFFSET -21.527611 0.000000 0.000000
                    CHANNELS 3 Zrotation Xrotation Yrotation
                    JOINT RightForeArm
                    {
                        OFFSET -56.353916 0.000000 0.000000
                        CHANNELS 3 Zrotation Xrotation Yrotation
                        JOINT RightHand
                        {
                            OFFSET -47.774071 0.000000 0.000000
                            CHANNELS 3 Zrotation Xrotation Yrotation
                            End Site
                            {
                                OFFSET -26.556021 0.000000 0.000000
                            }
                        }
                    }
                }
            }
        }
    }
    JOINT LeftUpLeg
    {
        OFFSET 17.704014 0.000000 0.000000
        CHANNELS 3 Zrotation Xrotation Yrotation
        JOINT LeftLeg
        {
            OFFSET -0.000000 -81.181816 0.000000
            CHANNELS 3 Zrotation Xrotation Yrotation
            JOINT LeftFoot
            {
                OFFSET -0.000000 -62.821102 0.000000
                CHANNELS 3 Zrotation Xrotation Yrotation
                JOINT LeftToeBase
                {
                    OFFSET -0.000000 -11.507608 26.556021
                    CHANNELS 3 Zrotation Xrotation Yrotation
                    End Site
                    {
                        OFFSET -0.000000 0.000000 7.081605
                    }
                }
            }
        }
    }
    JOINT RightUpLeg
    {
        OFFSET -17.704014 0.000000 0.000000
        CHANNELS 3 Zrotation Xrotation Yrotation
        JOINT RightLeg
        {
            OFFSET -0.000000 -81.181816 0.000000
            CHANNELS 3 Zrotation Xrotation Yrotation
            JOINT RightFoot
            {
                OFFSET -0.000000 -62.821102 0.000000
                CHANNELS 3 Zrotation Xrotation Yrotation
                JOINT RightToeBase
                {
                    OFFSET -0.000000 -11.507608 26.556021
                    CHANNELS 3 Zrotation Xrotation Yrotation
                    End Site
                    {
                        OFFSET -0.000000 0.000000 7.081605
                    }
                }
            }
        }
    }
}
MOTION
Frames:    11
Frame Time:    0.008333
-10.162035    151.005203    -11.402578    -0.425367    1.297426    28.697634    -0.532850    2.535027    13.148736    -6.590051    -0.708320    4.338799    1.678091    2.108680    -11.628986    12.290509    -2.734895    -10.305232    2.717381    2.410997    -6.675410    -43.092010    18.171370    -47.389580    -12.131972    -13.721702    -132.007095    3.265613    -38.616142    -6.168858    -9.721400    2.502701    6.993230    15.064859    2.588893    38.997837    -31.677870    -44.084866    -16.994993    12.513411    -45.112850    30.415518    -1.681696    -35.857761    -31.108477    -10.712084    23.256586    -23.774830    -10.435212    3.844455    28.892239    0.000000    0.000000    0.000000    5.790755    10.915637    -18.082811    2.776461    24.810907    -1.369212    -3.375205    -31.112595    -6.766594    0.000000    0.000000    0.000000    
-10.180701    151.003784    -11.391957    -0.426119    1.286372    28.706686    -0.513001    2.492815    13.173840    -6.566505    -0.631370    4.351918    1.604737    2.094824    -11.645728    12.357138    -2.711748    -10.304832    2.680584    2.367518    -6.683426    -43.078896    18.167173    -47.367153    -12.131920    -13.748530    -132.009460    3.238134    -38.638054    -6.177360    -9.763517    2.480895    7.069643    15.021779    2.304717    39.316338    -31.415836    -44.067268    -16.539026    13.179258    -44.801506    30.885803    -1.665645    -35.856525    -31.123566    -10.733732    23.263252    -23.780773    -10.434221    3.832245    28.911646    0.000000    0.000000    0.000000    5.810890    10.929857    -18.087627    2.776083    24.799377    -1.354662    -3.397843    -31.102354    -6.801382    0.000000    0.000000    0.000000    
-10.194855    151.000732    -11.383222    -0.421530    1.281029    28.705406    -0.500762    2.480055    13.202748    -6.565310    -0.608737    4.362970    1.598241    2.105216    -11.645191    12.358410    -2.718844    -10.302307    2.665426    2.355624    -6.683810    -43.075542    18.159988    -47.348209    -12.128618    -13.755486    -132.016693    3.206554    -38.640457    -6.205442    -9.771452    2.478955    7.144883    15.111359    1.597864    39.718868    -30.817034    -43.800537    -16.017727    13.619726    -44.232899    31.372581    -1.660874    -35.858494    -31.126230    -10.744072    23.282755    -23.769384    -10.432333    3.820324    28.909533    0.000000    0.000000    0.000000    5.818819    10.941537    -18.081280    2.767492    24.789190    -1.349021    -3.384799    -31.101160    -6.795269    0.000000    0.000000    0.000000    
-10.209502    150.997910    -11.373682    -0.421225    1.270139    28.704760    -0.494720    2.472887    13.232622    -6.535586    -0.593539    4.373995    1.553037    2.095018    -11.652583    12.373292    -2.684177    -10.305511    2.631968    2.340963    -6.679882    -43.071827    18.156404    -47.330883    -12.129777    -13.759218    -132.019470    3.160182    -38.645809    -6.232565    -9.810800    2.486004    7.208162    15.132681    1.154816    40.084888    -30.354811    -43.599419    -15.508717    14.213180    -43.694916    32.032562    -1.650826    -35.855839    -31.122051    -10.741629    23.297781    -23.778666    -10.449537    3.806192    28.912210    0.000000    0.000000    0.000000    5.829917    10.956831    -18.079161    2.774756    24.779133    -1.369738    -3.377664    -31.104038    -6.765992    0.000000    0.000000    0.000000    
-10.222231    150.992630    -11.363149    -0.417214    1.260958    28.701353    -0.486588    2.473140    13.263469    -6.518765    -0.583590    4.384992    1.519625    2.059967    -11.655094    12.374724    -2.628983    -10.309877    2.605762    2.323306    -6.686152    -43.064442    18.166361    -47.300236    -12.115678    -13.787127    -132.035873    3.152435    -38.650284    -6.239133    -9.852570    2.482631    7.277787    15.134281    0.806253    40.413395    -29.898987    -43.348343    -14.966501    14.530414    -43.186337    32.376801    -1.645409    -35.849304    -31.104624    -10.738443    23.311428    -23.767370    -10.443695    3.794543    28.893024    0.000000    0.000000    0.000000    5.840750    10.973508    -18.063177    2.772128    24.765766    -1.348784    -3.416533    -31.104940    -6.809059    0.000000    0.000000    0.000000    
-10.228618    150.989944    -11.354934    -0.412956    1.248581    28.703011    -0.527379    2.601144    13.366267    -6.475233    -0.784815    4.407644    1.530390    2.052943    -11.700912    12.311954    -2.547543    -10.378222    2.592812    2.391590    -6.755905    -43.074841    18.197435    -47.300381    -12.115114    -13.767464    -132.057098    3.153438    -38.644192    -6.217912    -9.889975    2.580861    7.185023    15.124080    0.520327    40.807076    -29.476543    -43.077686    -14.453346    14.795721    -42.668362    32.807945    -1.646018    -35.841743    -31.100824    -10.733327    23.329752    -23.756245    -10.427522    3.795323    28.863400    0.000000    0.000000    0.000000    5.850438    10.989303    -18.079712    2.760181    24.762726    -1.358469    -3.401936    -31.114273    -6.772073    0.000000    0.000000    0.000000    
-10.237089    150.985596    -11.348004    -0.411523    1.249917    28.701822    -0.521018    2.590018    13.388114    -6.462777    -0.777071    4.415534    1.523239    2.017275    -11.689876    12.285362    -2.495025    -10.376109    2.579851    2.376327    -6.745888    -43.056686    18.231859    -47.293091    -12.091693    -13.822536    -132.062500    3.146479    -38.647415    -6.232550    -9.935827    2.573735    7.285238    15.031228    0.411569    41.069401    -29.154831    -42.862675    -13.966789    15.058697    -42.228920    33.158756    -1.652562    -35.851898    -31.089367    -10.724939    23.362244    -23.784164    -10.433416    3.769753    28.883347    0.000000    0.000000    0.000000    5.849268    10.991983    -18.057074    2.779010    24.759920    -1.355750    -3.440278    -31.119970    -6.815454    0.000000    0.000000    0.000000    
-10.240581    150.981262    -11.340364    -0.407897    1.243647    28.697016    -0.509949    2.586784    13.419652    -6.447371    -0.772842    4.426475    1.487110    2.007401    -11.685194    12.306747    -2.472521    -10.365498    2.554827    2.380372    -6.735373    -43.020443    18.247505    -47.312370    -12.081010    -13.862145    -132.059326    3.116054    -38.656429    -6.258566    -10.028863    2.711051    7.267268    14.906634    0.264701    41.519691    -28.927258    -42.672215    -13.626923    15.435220    -41.818806    33.560760    -1.651051    -35.846004    -31.082798    -10.716960    23.371067    -23.788643    -10.423796    3.766370    28.867336    0.000000    0.000000    0.000000    5.847184    10.998567    -18.060177    2.779705    24.768934    -1.338928    -3.439882    -31.129749    -6.820870    0.000000    0.000000    0.000000    
-10.245464    150.975708    -11.331913    -0.402081    1.237913    28.687477    -0.500915    2.586636    13.446674    -6.444448    -0.768144    4.435833    1.465558    1.977922    -11.676809    12.322656    -2.428582    -10.356337    2.552656    2.362217    -6.730028    -43.008904    18.270920    -47.307472    -12.073583    -13.894915    -132.068146    3.086931    -38.672222    -6.257991    -10.080153    2.722970    7.343344    14.916182    -0.065382    41.831131    -28.497095    -42.404488    -13.133383    15.748505    -41.292027    33.972031    -1.591029    -35.785336    -31.045177    -10.640757    23.163271    -23.953140    -10.637918    3.810293    28.869150    0.000000    0.000000    0.000000    5.844721    11.004810    -18.047264    2.782850    24.780302    -1.341747    -3.451139    -31.144938    -6.820459    0.000000    0.000000    0.000000    
-10.252570    150.970276    -11.323357    -0.403675    1.232278    28.684769    -0.480391    2.585880    13.465890    -6.455544    -0.772215    4.442085    1.442151    1.969311    -11.670910    12.362142    -2.396433    -10.344203    2.546858    2.353293    -6.724311    -42.994610    18.263367    -47.307961    -12.075360    -13.877264    -132.067642    3.102261    -38.661533    -6.242268    -10.113613    2.717084    7.422773    14.925653    -0.369941    42.112835    -28.051680    -42.198132    -12.587902    16.060284    -40.819328    34.346817    -1.639574    -35.840801    -31.071091    -10.718797    23.400667    -23.786720    -10.416656    3.721844    28.866833    0.000000    0.000000    0.000000    5.849551    11.009158    -18.057266    2.780094    24.788660    -1.340934    -3.444482    -31.154882    -6.796153    0.000000    0.000000    0.000000    
-10.256484    150.967667    -11.313175    -0.393162    1.222014    28.676306    -0.474883    2.583295    13.489494    -6.449952    -0.756686    4.450922    1.407527    1.948040    -11.667051    12.397751    -2.366439    -10.333289    2.538398    2.338404    -6.725602    -42.979424    18.261759    -47.311512    -12.070502    -13.884140    -132.068726    3.085524    -38.657677    -6.241568    -10.146736    2.695786    7.493157    15.073379    -0.944118    42.438213    -27.444681    -41.902813    -12.010410    16.336208    -40.242718    34.726803    -1.635784    -35.826000    -31.067150    -10.721354    23.406021    -23.773901    -10.421943    3.710495    28.862514    0.000000    0.000000    0.000000    5.842902    11.026855    -18.044590    2.799245    24.787527    -1.344104    -3.487738    -31.155231    -6.818680    0.000000    0.000000    0.000000    
